<?xml version="1.0" encoding="UTF-8" standalone="no"?><!DOCTYPE svg PUBLIC "-//W3C//DTD SVG 1.1//EN" "http://www.w3.org/Graphics/SVG/1.1/DTD/svg11.dtd"><svg width="100%" height="100%" viewBox="0 0 9267 1359" version="1.1" xmlns="http://www.w3.org/2000/svg" xmlns:xlink="http://www.w3.org/1999/xlink" xml:space="preserve" xmlns:serif="http://www.serif.com/" style="fill-rule:evenodd;clip-rule:evenodd;stroke-linejoin:round;stroke-miterlimit:2;"><g><path d="M526.125,866.342c-82.387,128.387 -244.066,380.578 -509.464,409.912c-2.696,0.298 -6.017,0.794 -8.133,0.111c-1.97,-0.636 -4.269,-2.439 -4.566,-4.208c-0.297,-1.77 0.547,-4.893 2.782,-6.409c10.567,-7.171 182.348,-18.83 337.623,-266.243c38.298,-61.024 63.987,-113.806 85.315,-158.354c-191.47,1.684 -351.875,-89.442 -395.25,-198.249c-83.951,-210.591 211.8,-453.74 387.904,-222.187c18.831,24.761 69.703,93.38 109.058,172.598c67.79,-206.194 168.121,-428.828 297.088,-529.491c0.438,-0.342 109.246,-96.565 232.4,-50.541c202.687,75.747 167.925,430.28 -46.836,646.203c258.525,-54.671 403.222,-192.3 436.616,-399.078c0.723,-4.476 1.062,-9.09 2.098,-13.44c0.626,-2.63 2.981,-5.436 6.111,-5.332c2.373,0.079 4.893,3.508 5.317,6.155c2.623,16.359 0.168,49.664 -7.644,93.223c-49.894,278.213 -306.528,403.205 -538.902,457.45c190.164,128.817 340.08,326.886 320.244,449.055c-10.743,66.168 -67.211,115.733 -174.666,109.46c-158.07,-9.228 -349.827,-95.279 -475.927,-344.49c-28.023,-55.382 -47.495,-104.707 -61.167,-146.148Zm-45.471,-171.945c-40.187,-101.674 -131.947,-218.847 -162.669,-242.031c-107.851,-81.386 -236.928,88.608 -153.11,170.551c11.823,11.559 60.287,51.009 135.032,68.338c72.342,16.771 137.599,10.778 180.748,3.142Zm159.706,-15.894c89.733,-13.737 217.006,-59.542 308.877,-204.958c92.569,-146.521 77.867,-292.033 44.996,-295.915c-88.153,-10.409 -245.051,224.817 -363.568,499.435c3.645,0.502 6.905,0.992 9.695,1.437Zm-36.389,162.043c71.332,234.36 231.238,405.998 454.315,408.394c36.314,0.39 62.547,-7.988 62.208,-15.158c-4.911,-103.931 -226.899,-299.49 -412.511,-365.744c-42.36,-15.121 -74.914,-23.291 -104.012,-27.492Z" style="fill:#fff;"/><g><path d="M1833.008,1002.686c-20.113,-1.635 -36.097,-5.539 -47.952,-11.712c-11.855,-6.173 -20.583,-13.306 -26.184,-21.401c-5.601,-8.094 -9.464,-16.127 -11.589,-24.099c-2.126,-7.972 -3.638,-14.533 -4.538,-19.684c-1.962,-46.93 -3.761,-90.815 -5.396,-131.654c-1.635,-40.839 -2.514,-80.983 -2.637,-120.432c-0.123,-39.449 0.736,-80.738 2.575,-123.866c1.84,-43.128 5.049,-90.774 9.627,-142.937c1.962,-9.157 8.012,-18.253 18.151,-27.287c10.138,-9.034 26.081,-14.124 47.83,-15.269l296.053,-1.717c0,0 2.759,0.164 8.278,0.491c5.519,0.327 12.611,1.329 21.278,3.005c8.667,1.676 17.272,4.66 25.816,8.953c8.544,4.292 15.677,10.465 21.401,18.519c5.723,8.053 8.789,18.335 9.198,30.844c0.409,13 -2.126,23.159 -7.604,30.476c-5.478,7.318 -11.896,12.632 -19.254,15.943c-7.358,3.311 -13.879,5.376 -19.561,6.193c-5.682,0.818 -8.523,1.226 -8.523,1.226l-266.129,-11.283c-2.044,33.849 -3.638,64.795 -4.783,92.838c-1.145,28.044 -1.88,54.636 -2.208,79.777c-0.327,25.141 -0.266,50.221 0.184,75.24c0.45,25.019 0.92,51.55 1.41,79.593c0.491,28.044 1.431,59.072 2.821,93.084c22.811,-3.025 42.944,-5.601 60.4,-7.726c17.456,-2.126 33.215,-4.211 47.278,-6.255c14.063,-2.044 27.982,-4.088 41.759,-6.132c13.777,-2.044 28.248,-4.517 43.415,-7.42c15.166,-2.902 32.234,-6.316 51.202,-10.24c0,0 2.351,-0.061 7.052,-0.184c4.701,-0.123 10.711,0.327 18.028,1.349c7.318,1.022 14.942,3.148 22.872,6.377c7.931,3.23 15.085,7.829 21.462,13.797c6.377,5.968 10.711,13.777 13,23.424c3.761,13.572 4.333,24.753 1.717,33.542c-2.616,8.789 -6.643,15.534 -12.08,20.236c-5.437,4.701 -10.404,7.992 -14.901,9.873c-4.497,1.88 -6.745,2.821 -6.745,2.821c-30.578,6.541 -59.215,12.428 -85.909,17.66c-26.695,5.233 -53.083,9.607 -79.164,13.122c-26.081,3.516 -52.653,6.234 -79.716,8.156c-27.063,1.921 -56.374,2.841 -87.933,2.759Zm-60.216,-268.214l-6.745,-116.385l273.732,-10.792c0,0 2.432,0.511 7.297,1.533c4.865,1.022 10.854,2.78 17.967,5.274c7.113,2.494 14.165,6.091 21.155,10.792c6.99,4.701 12.918,10.67 17.783,17.905c4.865,7.236 7.297,16.127 7.297,26.674c0,13.163 -2.923,23.506 -8.769,31.028c-5.846,7.522 -12.632,12.959 -20.358,16.311c-7.726,3.352 -14.512,5.335 -20.358,5.948c-5.846,0.613 -8.769,0.92 -8.769,0.92l-280.232,10.792Z" style="fill:#fff;fill-rule:nonzero;"/><path d="M2418.246,909.602c34.584,0.981 54.697,-3.127 60.339,-12.325c5.641,-9.198 -1.267,-22.709 -20.726,-40.533c-8.503,-7.849 -19.377,-16.25 -32.622,-25.203c-13.245,-8.953 -27.247,-18.825 -42.004,-29.618c-14.758,-10.792 -28.882,-22.811 -42.372,-36.056c-13.49,-13.245 -25.223,-27.982 -35.198,-44.212c-9.975,-16.229 -16.597,-34.482 -19.868,-54.759c-4.742,-28.534 -0.204,-54.309 13.613,-77.325c13.817,-23.015 35.668,-41.227 65.551,-54.636c29.883,-13.409 66.777,-19.622 110.683,-18.641c43.905,0.981 93.697,11.528 149.376,31.641c0,0 1.574,1.042 4.722,3.127c3.148,2.085 6.5,5.376 10.056,9.873c3.557,4.497 6.541,9.873 8.953,16.127c2.412,6.255 2.882,13.552 1.41,21.891c-1.472,6.704 -4.19,11.998 -8.156,15.882c-3.965,3.884 -8.36,6.766 -13.184,8.646c-4.824,1.88 -9.014,3.025 -12.571,3.434c-3.557,0.409 -5.335,0.613 -5.335,0.613c0,0 -2.657,-0.245 -7.972,-0.736c-5.314,-0.491 -12.468,-0.879 -21.462,-1.165c-8.994,-0.286 -19.193,-0.45 -30.599,-0.491c-11.406,-0.041 -23.159,0.286 -35.259,0.981c-12.1,0.695 -23.976,1.88 -35.627,3.557c-11.651,1.676 -22.3,4.313 -31.948,7.91c-11.937,5.069 -20.685,10.588 -26.245,16.556c-5.56,5.968 -7.236,13.041 -5.028,21.217c2.208,8.176 9.075,17.578 20.604,28.207c11.528,10.629 28.739,22.811 51.631,36.547c32.704,19.622 59.603,40.941 80.697,63.957c21.094,23.015 35.198,46.358 42.311,70.027c7.113,23.67 5.764,46.951 -4.047,69.843c-7.113,16.597 -20.706,30.067 -40.778,40.41c-20.072,10.343 -43.844,17.129 -71.315,20.358c-27.471,3.23 -56.312,2.719 -86.523,-1.533c-30.21,-4.252 -59.623,-12.632 -88.239,-25.141c-28.616,-12.509 -53.389,-29.556 -74.32,-51.141c0,0 -1.186,-1.553 -3.557,-4.66c-2.371,-3.107 -4.742,-7.154 -7.113,-12.141c-2.371,-4.987 -3.393,-10.486 -3.066,-16.495c0.327,-6.009 3.189,-12.039 8.585,-18.089c5.233,-5.641 11.181,-9.198 17.844,-10.67c6.663,-1.472 13.163,-1.635 19.5,-0.491c6.336,1.145 11.589,2.494 15.759,4.047c4.17,1.553 6.255,2.33 6.255,2.33c0,0 3.127,1.901 9.382,5.703c6.255,3.802 14.88,8.34 25.877,13.613c10.997,5.274 23.567,9.832 37.712,13.674c14.144,3.843 28.902,5.805 44.273,5.887Z" style="fill:#fff;fill-rule:nonzero;"/><path d="M2914.448,1013.478c-53.635,-2.862 -96.804,-14.267 -129.508,-34.217c-32.704,-19.949 -56.905,-46.767 -72.603,-80.452c-15.698,-33.685 -25.182,-71.785 -28.452,-114.3c-2.616,-34.012 1.145,-66.982 11.283,-98.909c10.138,-31.927 25.836,-60.482 47.094,-85.664c21.258,-25.182 47.257,-45.132 77.999,-59.848c30.742,-14.717 65.735,-21.748 104.98,-21.094c33.849,0.409 62.444,4.844 85.787,13.306c23.342,8.462 42.617,18.825 57.825,31.089c15.207,12.264 26.899,24.528 35.075,36.792c8.176,12.264 13.899,22.464 17.17,30.599c3.27,8.135 4.906,12.203 4.906,12.203c0,0 -0.143,2.616 -0.429,7.849c-0.286,5.233 -2.044,11.671 -5.274,19.316c-3.23,7.645 -9.586,14.696 -19.071,21.155c-7.931,5.069 -17.333,8.544 -28.207,10.424c-10.874,1.88 -21.217,1.84 -31.028,-0.123c-9.811,-1.962 -16.965,-5.601 -21.462,-10.915c-0.818,0 -2.882,-2.33 -6.193,-6.99c-3.311,-4.66 -8.074,-9.852 -14.288,-15.575c-6.214,-5.723 -14.39,-10.772 -24.528,-15.146c-10.138,-4.374 -22.32,-6.275 -36.547,-5.703c-17.742,0.981 -33.746,4.333 -48.014,10.056c-14.267,5.723 -26.49,13.879 -36.669,24.467c-10.179,10.588 -17.885,23.322 -23.118,38.202c-5.233,14.88 -7.563,31.764 -6.99,50.65c0.164,25.509 4.497,46.317 13,62.424c8.503,16.107 20.113,28.146 34.83,36.117c14.717,7.972 31.273,12.898 49.669,14.778c14.553,0.981 28.412,-0.082 41.575,-3.189c13.163,-3.107 25.162,-7.174 35.995,-12.203c10.833,-5.028 19.745,-9.545 26.736,-13.552c6.99,-4.006 11.508,-6.214 13.552,-6.623c13.899,-4.497 26.449,-5.805 37.65,-3.924c11.201,1.88 21.237,5.539 30.108,10.976c8.871,5.437 16.005,11.998 21.401,19.684c7.931,10.384 12.06,19.97 12.387,28.759c0.327,8.789 -0.491,15.861 -2.453,21.217c-1.962,5.355 -2.943,8.033 -2.943,8.033c0,0 -4.027,4.374 -12.08,13.122c-8.053,8.748 -20.787,18.743 -38.202,29.985c-17.415,11.242 -40.124,20.747 -68.127,28.514c-28.003,7.767 -62.281,10.67 -102.834,8.707Z" style="fill:#fff;fill-rule:nonzero;"/><path d="M3413.47,1003.79c-35.729,0 -68.556,-6.152 -98.48,-18.457c-29.924,-12.305 -55.781,-29.291 -77.57,-50.957c-21.789,-21.666 -38.713,-46.848 -50.773,-75.546c-12.06,-28.708 -18.089,-59.368 -18.089,-91.98c0,-32.704 6.255,-64.263 18.764,-94.678c12.509,-30.415 30.006,-57.498 52.49,-81.249c22.484,-23.751 48.913,-42.495 79.287,-56.23c30.374,-13.736 63.425,-20.604 99.154,-20.604c35.729,0 69.046,4.906 99.952,14.717c30.905,9.811 58.07,24.794 81.494,44.948c23.424,20.154 41.657,45.632 54.697,76.435c13.041,30.793 19.561,67.156 19.561,109.088c0,32.765 -6.745,63.906 -20.236,93.421c-13.49,29.515 -32.295,55.597 -56.414,78.244c-24.119,22.648 -51.856,40.451 -83.211,53.41c-31.355,12.959 -64.897,19.438 -100.626,19.438Zm-1.886,-117.612c16.72,0 32.699,-3.516 47.937,-10.547c15.248,-7.031 28.759,-16.761 40.533,-29.188c11.773,-12.428 21.115,-26.541 28.023,-42.341c6.909,-15.8 10.363,-32.592 10.363,-50.374c0,-30.088 -4.926,-54.759 -14.778,-74.013c-9.852,-19.254 -23.307,-33.522 -40.364,-42.801c-17.057,-9.28 -36.792,-13.92 -59.204,-13.92c-16.567,0 -32.106,4.129 -46.619,12.387c-14.512,8.258 -27.206,19.295 -38.08,33.113c-10.874,13.817 -19.479,29.168 -25.816,46.051c-6.336,16.883 -9.505,34.119 -9.505,51.708c0,23.445 4.415,44.207 13.245,62.286c8.83,18.069 21.339,32.193 37.528,42.372c16.188,10.179 35.101,15.269 56.736,15.269Z" style="fill:#fff;fill-rule:nonzero;"/><path d="M3792.29,1004.894c-14.911,0 -27.139,-2.867 -36.685,-8.6c-9.545,-5.733 -16.996,-12.499 -22.351,-20.297c-5.355,-7.798 -9.137,-14.558 -11.344,-20.282c-2.208,-5.723 -3.311,-8.585 -3.311,-8.585c-2.616,-28.125 -4.742,-59.664 -6.377,-94.617c-1.635,-34.952 -2.719,-71.56 -3.25,-109.824c-0.531,-38.264 -0.368,-76.793 0.491,-115.588c0.858,-38.795 2.269,-76.65 4.231,-113.565c1.962,-36.915 4.252,-71.397 6.868,-103.447c0,0 0.675,-2.351 2.024,-7.052c1.349,-4.701 4.211,-10.097 8.585,-16.188c4.374,-6.091 10.751,-11.181 19.132,-15.269c8.38,-4.088 19.653,-5.519 33.818,-4.292c15.105,1.226 26.991,5.028 35.658,11.406c8.667,6.377 15.069,13.434 19.208,21.171c4.139,7.726 6.898,14.492 8.278,20.297c1.38,5.795 2.07,8.692 2.07,8.692c-1.39,25.346 -2.637,54.697 -3.741,88.056c-1.104,33.358 -1.921,68.74 -2.453,106.145c-0.531,37.405 -0.736,75.505 -0.613,114.3c0.123,38.795 0.572,76.752 1.349,113.871c0.777,37.119 2.146,71.704 4.108,103.753c0,0 -0.475,2.499 -1.426,7.496c-0.94,4.987 -3.066,10.808 -6.377,17.461c-3.301,6.653 -8.733,12.479 -16.296,17.476c-7.563,4.987 -18.095,7.481 -31.595,7.481Z" style="fill:#fff;fill-rule:nonzero;"/><path d="M4131.282,1003.79c-34.503,0.409 -66.307,-5.437 -95.414,-17.538c-29.107,-12.1 -54.554,-29.086 -76.343,-50.957c-21.789,-21.871 -38.611,-47.237 -50.466,-76.098c-11.855,-28.861 -17.783,-59.644 -17.783,-92.348c0.409,-36.383 7.072,-69.884 19.99,-100.503c12.918,-30.619 30.619,-57.191 53.103,-79.716c22.484,-22.525 48.709,-40.042 78.674,-52.551c29.965,-12.509 62.199,-18.968 96.702,-19.377c51.1,-0.409 94.453,8.053 130.06,25.386c35.606,17.333 62.689,44.15 81.249,80.452c18.56,36.301 27.839,82.578 27.839,138.828c0,32.704 -5.212,63.609 -15.637,92.716c-10.424,29.107 -25.959,54.881 -46.603,77.325c-20.644,22.443 -46.44,40.246 -77.386,53.41c-30.946,13.163 -66.941,20.154 -107.985,20.971Zm5.028,-118.838c16.516,0 32.316,-3.618 47.4,-10.854c15.085,-7.236 28.412,-17.17 39.981,-29.802c11.569,-12.632 20.808,-27.083 27.717,-43.353c6.909,-16.27 10.363,-33.44 10.363,-51.509c0,-30.496 -4.926,-55.474 -14.778,-74.933c-9.852,-19.459 -23.118,-33.93 -39.797,-43.415c-16.679,-9.484 -36.015,-14.226 -58.009,-14.226c-16.107,0 -31.416,4.231 -45.929,12.693c-14.512,8.462 -27.206,19.704 -38.08,33.726c-10.874,14.022 -19.377,29.679 -25.509,46.971c-6.132,17.292 -9.198,34.973 -9.198,53.042c0,23.302 4.313,44.212 12.939,62.73c8.626,18.519 20.931,32.97 36.915,43.353c15.984,10.384 34.646,15.575 55.985,15.575Zm237.063,119.329c-14.063,0 -25.652,-2.391 -34.768,-7.174c-9.116,-4.783 -15.821,-9.505 -20.113,-14.165c-4.292,-4.66 -6.439,-6.99 -6.439,-6.99c-4.579,-47.748 -8.401,-94.821 -11.467,-141.22c-3.066,-46.399 -4.231,-93.942 -3.495,-142.63c0.736,-48.688 3.393,-99.318 7.972,-151.89c0,0 1.962,-2.289 5.887,-6.868c3.924,-4.579 10.486,-9.055 19.684,-13.429c9.198,-4.374 21.482,-5.948 36.853,-4.722c15.861,1.226 28.023,5.539 36.485,12.939c8.462,7.399 14.267,15.698 17.415,24.896c3.148,9.198 4.987,17.19 5.519,23.976c0.531,6.786 0.797,10.179 0.797,10.179c-2.616,33.358 -4.742,63.711 -6.377,91.06c-1.635,27.349 -2.289,54.554 -1.962,81.617c0.327,27.063 1.145,56.067 2.453,87.013c1.308,30.946 2.943,66.573 4.906,106.881c0,0 -0.368,2.514 -1.104,7.542c-0.736,5.028 -2.678,10.833 -5.825,17.415c-3.148,6.582 -8.38,12.489 -15.698,17.721c-7.318,5.233 -17.558,7.849 -30.721,7.849Z" style="fill:#fff;fill-rule:nonzero;"/><path d="M4830.33,1002.686c-20.113,-1.635 -36.097,-5.539 -47.952,-11.712c-11.855,-6.173 -20.583,-13.306 -26.184,-21.401c-5.601,-8.094 -9.464,-16.127 -11.589,-24.099c-2.126,-7.972 -3.638,-14.533 -4.538,-19.684c-1.962,-46.93 -3.761,-90.815 -5.396,-131.654c-1.635,-40.839 -2.514,-80.983 -2.637,-120.432c-0.123,-39.449 0.736,-80.738 2.575,-123.866c1.84,-43.128 5.049,-90.774 9.627,-142.937c1.962,-9.157 8.012,-18.253 18.151,-27.287c10.138,-9.034 26.081,-14.124 47.83,-15.269l296.053,-1.717c0,0 2.759,0.164 8.278,0.491c5.519,0.327 12.611,1.329 21.278,3.005c8.667,1.676 17.272,4.66 25.816,8.953c8.544,4.292 15.677,10.465 21.401,18.519c5.723,8.053 8.789,18.335 9.198,30.844c0.409,13 -2.126,23.159 -7.604,30.476c-5.478,7.318 -11.896,12.632 -19.254,15.943c-7.358,3.311 -13.879,5.376 -19.561,6.193c-5.682,0.818 -8.523,1.226 -8.523,1.226l-266.129,-11.283c-2.044,33.849 -3.638,64.795 -4.783,92.838c-1.145,28.044 -1.88,54.636 -2.208,79.777c-0.327,25.141 -0.266,50.221 0.184,75.24c0.45,25.019 0.92,51.55 1.41,79.593c0.491,28.044 1.431,59.072 2.821,93.084c22.811,-3.025 42.944,-5.601 60.4,-7.726c17.456,-2.126 33.215,-4.211 47.278,-6.255c14.063,-2.044 27.982,-4.088 41.759,-6.132c13.777,-2.044 28.248,-4.517 43.415,-7.42c15.166,-2.902 32.234,-6.316 51.202,-10.24c0,0 2.351,-0.061 7.052,-0.184c4.701,-0.123 10.711,0.327 18.028,1.349c7.318,1.022 14.942,3.148 22.872,6.377c7.931,3.23 15.085,7.829 21.462,13.797c6.377,5.968 10.711,13.777 13,23.424c3.761,13.572 4.333,24.753 1.717,33.542c-2.616,8.789 -6.643,15.534 -12.08,20.236c-5.437,4.701 -10.404,7.992 -14.901,9.873c-4.497,1.88 -6.745,2.821 -6.745,2.821c-30.578,6.541 -59.215,12.428 -85.909,17.66c-26.695,5.233 -53.083,9.607 -79.164,13.122c-26.081,3.516 -52.653,6.234 -79.716,8.156c-27.063,1.921 -56.374,2.841 -87.933,2.759Zm-60.216,-268.214l-6.745,-116.385l273.732,-10.792c0,0 2.432,0.511 7.297,1.533c4.865,1.022 10.854,2.78 17.967,5.274c7.113,2.494 14.165,6.091 21.155,10.792c6.99,4.701 12.918,10.67 17.783,17.905c4.865,7.236 7.297,16.127 7.297,26.674c0,13.163 -2.923,23.506 -8.769,31.028c-5.846,7.522 -12.632,12.959 -20.358,16.311c-7.726,3.352 -14.512,5.335 -20.358,5.948c-5.846,0.613 -8.769,0.92 -8.769,0.92l-280.232,10.792Z" style="fill:#fff;fill-rule:nonzero;"/><path d="M5635.829,990.79c-15.207,-4.17 -26.633,-10.465 -34.278,-18.887c-7.645,-8.421 -12.734,-17.149 -15.269,-26.184c-2.535,-9.034 -3.822,-16.883 -3.863,-23.547c-0.041,-6.663 -0.061,-9.995 -0.061,-9.995c6.214,-46.194 8.605,-89.486 7.174,-129.876c-1.431,-40.389 -8.81,-72.235 -22.137,-95.537c-11.201,-20.113 -25.1,-34.073 -41.698,-41.882c-16.597,-7.808 -34.012,-10.24 -52.245,-7.297c-18.232,2.943 -35.811,10.874 -52.735,23.792c-18.478,14.226 -32.295,31.253 -41.452,51.08c-9.157,19.827 -15.269,40.144 -18.335,60.952c-3.066,20.808 -5.008,40.001 -5.825,57.579c0.082,18.151 0.082,33.624 0,46.419c-0.082,12.795 0.102,23.853 0.552,33.174c0.45,9.321 0.634,18.069 0.552,26.245c0,0 -0.102,1.921 -0.307,5.764c-0.204,3.843 -1.39,8.421 -3.557,13.736c-2.167,5.314 -6.357,10.118 -12.571,14.41c-6.214,4.292 -15.657,6.97 -28.33,8.033c-10.465,0.654 -19.827,-1.819 -28.085,-7.42c-8.258,-5.601 -14.737,-11.262 -19.438,-16.986c-4.701,-5.723 -7.052,-8.585 -7.052,-8.585c-6.623,-10.302 -10.343,-20.399 -11.16,-30.292c-0.818,-9.893 -0.879,-21.523 -0.184,-34.891c0.695,-13.368 -0.102,-30.149 -2.391,-50.344c-2.453,-24.692 -3.7,-46.378 -3.741,-65.061c-0.041,-18.682 1.206,-35.688 3.741,-51.018c2.535,-15.33 6.745,-30.067 12.632,-44.212c5.887,-14.144 14.063,-28.82 24.528,-44.028c13.817,-17.333 30.905,-33.583 51.264,-48.749c20.358,-15.166 42.658,-27.696 66.9,-37.589c24.242,-9.893 49.322,-16.005 75.24,-18.335c25.918,-2.33 51.141,0.347 75.669,8.033c15.616,5.887 31.662,13.838 48.136,23.853c16.475,10.016 32.377,22.831 47.707,38.448c15.33,15.616 29.127,34.809 41.391,57.579c12.264,22.77 22.198,49.771 29.802,81.004c6.95,33.195 10.179,66.389 9.689,99.584c-0.491,33.195 -4.006,71.049 -10.547,113.565c0,0 -0.736,3.168 -2.208,9.505c-1.472,6.336 -4.763,13.245 -9.873,20.726c-5.11,7.481 -12.979,13.306 -23.608,17.476c-10.629,4.17 -25.305,4.088 -44.028,-0.245Zm-328.062,12.877c-12.755,-0.818 -23.363,-3.679 -31.825,-8.585c-8.462,-4.906 -15.31,-10.649 -20.542,-17.231c-5.233,-6.582 -8.891,-12.223 -10.976,-16.924c-2.085,-4.701 -3.127,-7.052 -3.127,-7.052c-3.924,-35.32 -6.704,-68.433 -8.34,-99.338c-1.635,-30.905 -2.453,-61.34 -2.453,-91.305c0,-29.965 0.879,-61.381 2.637,-94.249c1.758,-32.868 4.272,-69.046 7.542,-108.536c0,0 0.572,-2.351 1.717,-7.052c1.145,-4.701 3.597,-10.097 7.358,-16.188c3.761,-6.091 9.934,-11.385 18.519,-15.882c8.585,-4.497 19.99,-6.541 34.217,-6.132c15.453,0.409 27.614,3.7 36.485,9.873c8.871,6.173 15.494,13.245 19.868,21.217c4.374,7.972 7.236,14.942 8.585,20.91c1.349,5.968 2.024,8.953 2.024,8.953c-2.208,32.132 -3.863,62.792 -4.967,91.98c-1.104,29.188 -1.656,58.54 -1.656,88.056c0,29.515 0.45,60.462 1.349,92.838c0.899,32.377 2.453,67.493 4.66,105.348c0,0 -0.47,2.616 -1.41,7.849c-0.94,5.233 -3.291,11.242 -7.052,18.028c-3.761,6.786 -9.77,12.591 -18.028,17.415c-8.258,4.824 -19.786,6.827 -34.584,6.009Z" style="fill:#fff;fill-rule:nonzero;"/><path d="M5910.712,1004.894c-14.85,0 -27.032,-2.862 -36.547,-8.585c-9.515,-5.723 -16.868,-12.484 -22.06,-20.282c-5.192,-7.798 -8.851,-14.563 -10.976,-20.297c-2.126,-5.733 -3.189,-8.6 -3.189,-8.6c-2.616,-28.125 -4.844,-59.664 -6.684,-94.617c-1.84,-34.952 -2.984,-71.56 -3.434,-109.824c-0.45,-38.264 -0.286,-76.793 0.491,-115.588c0.777,-38.795 2.146,-76.65 4.108,-113.565c1.962,-36.915 4.252,-71.397 6.868,-103.447c0,0 0.675,-2.351 2.024,-7.052c1.349,-4.701 4.211,-10.097 8.585,-16.188c4.374,-6.091 10.751,-11.181 19.132,-15.269c8.38,-4.088 19.653,-5.519 33.818,-4.292c15.105,1.226 26.991,5.028 35.658,11.406c8.667,6.377 15.069,13.434 19.208,21.171c4.139,7.726 6.898,14.492 8.278,20.297c1.38,5.795 2.07,8.692 2.07,8.692c-1.39,25.346 -2.637,54.697 -3.741,88.056c-1.104,33.358 -1.983,68.74 -2.637,106.145c-0.654,37.405 -0.92,75.505 -0.797,114.3c0.123,38.795 0.634,76.752 1.533,113.871c0.899,37.119 2.33,71.704 4.292,103.753c0,0 -0.48,2.499 -1.441,7.496c-0.95,4.987 -3.097,10.808 -6.439,17.461c-3.342,6.653 -8.835,12.479 -16.48,17.476c-7.634,4.987 -18.181,7.481 -31.641,7.481Zm136.452,-365.958c-51.672,-0.409 -100.524,-1.247 -146.555,-2.514c-46.031,-1.267 -87.156,-2.228 -123.376,-2.882c0,0 -3.194,-0.475 -9.581,-1.426c-6.377,-0.961 -14.063,-3.107 -23.056,-6.439c-8.983,-3.342 -16.97,-8.508 -23.961,-15.499c-6.99,-6.99 -11.099,-16.516 -12.325,-28.575c-1.226,-10.67 0.184,-19.234 4.231,-25.693c4.047,-6.459 9.137,-11.344 15.269,-14.655c6.132,-3.311 11.528,-5.641 16.188,-6.99c4.66,-1.349 6.99,-2.024 6.99,-2.024c5.233,-0.899 15.018,-1.615 29.357,-2.146c14.339,-0.531 31.61,-1.063 51.815,-1.594c20.205,-0.531 42.02,-0.961 65.444,-1.288c23.424,-0.327 46.91,-0.593 70.457,-0.797c23.547,-0.204 45.786,-0.307 66.716,-0.307c0,0 2.494,0.327 7.481,0.981c4.987,0.654 11.119,1.983 18.396,3.986c7.277,2.003 14.512,5.253 21.707,9.75c7.195,4.497 13.184,10.445 17.967,17.844c4.783,7.399 6.97,16.822 6.561,28.269c-0.409,13.736 -3.73,24.375 -9.964,31.917c-6.234,7.542 -13.163,12.611 -20.787,15.207c-7.624,2.596 -14.359,4.057 -20.205,4.384c-5.846,0.327 -8.769,0.491 -8.769,0.491Z" style="fill:#fff;fill-rule:nonzero;"/><path d="M6199.851,921.621c-11.446,1.063 -20.42,-1.901 -26.919,-8.891c-6.5,-6.99 -11.181,-15.33 -14.042,-25.019c-2.862,-9.689 -4.681,-18.355 -5.457,-26c-0.777,-7.645 -1.165,-11.467 -1.165,-11.467c-3.516,-15.453 -5.968,-27.553 -7.358,-36.301c-1.39,-8.748 -1.942,-16.127 -1.656,-22.137c0.286,-6.009 0.736,-12.468 1.349,-19.377c0.613,-6.909 1.042,-16.127 1.288,-27.655c2.616,-38.591 11.058,-72.787 25.325,-102.588c14.267,-29.802 33.501,-54.513 57.702,-74.136c24.201,-19.622 51.591,-33.644 82.169,-42.066c33.113,-6.868 63.078,-8.953 89.895,-6.255c26.817,2.698 50.528,8.748 71.131,18.151c20.604,9.402 38.059,20.644 52.367,33.726c0,0 1.533,1.635 4.599,4.906c3.066,3.27 6.5,7.747 10.302,13.429c3.802,5.682 6.561,12.141 8.278,19.377c1.717,7.236 1.492,14.737 -0.675,22.504c-2.167,7.767 -7.869,15.616 -17.108,23.547c-8.258,7.358 -17.905,11.017 -28.943,10.976c-11.038,-0.041 -21.544,-1.88 -31.518,-5.519c-9.975,-3.638 -18.314,-7.215 -25.019,-10.731c-6.704,-3.516 -10.056,-5.274 -10.056,-5.274c-12.019,-7.849 -26.797,-11.406 -44.334,-10.67c-17.538,0.736 -35.341,5.682 -53.41,14.839c-20.195,10.465 -36.669,24.262 -49.424,41.391c-12.755,17.129 -20.726,37.262 -23.915,60.4c-1.553,15.453 -2.862,28.657 -3.924,39.613c-1.063,10.956 -1.86,20.849 -2.391,29.679c-0.531,8.83 -0.736,18.069 -0.613,27.717c0.123,9.648 0.511,21.217 1.165,34.707c0,0 -1.369,2.943 -4.108,8.83c-2.739,5.887 -8.237,11.876 -16.495,17.967c-8.258,6.091 -20.604,10.2 -37.037,12.325Zm7.604,82.046c-12.755,-0.818 -23.363,-3.679 -31.825,-8.585c-8.462,-4.906 -15.31,-10.649 -20.542,-17.231c-5.233,-6.582 -8.891,-12.223 -10.976,-16.924c-2.085,-4.701 -3.127,-7.052 -3.127,-7.052c-3.924,-35.32 -6.704,-68.433 -8.34,-99.338c-1.635,-30.905 -2.453,-61.34 -2.453,-91.305c0,-29.965 0.879,-61.381 2.637,-94.249c1.758,-32.868 4.272,-69.046 7.542,-108.536c0,0 0.572,-2.351 1.717,-7.052c1.145,-4.701 3.597,-10.097 7.358,-16.188c3.761,-6.091 9.934,-11.385 18.519,-15.882c8.585,-4.497 19.99,-6.541 34.217,-6.132c15.453,0.409 27.614,3.7 36.485,9.873c8.871,6.173 15.494,13.245 19.868,21.217c4.374,7.972 7.236,14.942 8.585,20.91c1.349,5.968 2.024,8.953 2.024,8.953c-2.208,32.132 -3.863,62.792 -4.967,91.98c-1.104,29.188 -1.656,58.54 -1.656,88.056c0,29.515 0.45,60.462 1.349,92.838c0.899,32.377 2.453,67.493 4.66,105.348c0,0 -0.47,2.616 -1.41,7.849c-0.94,5.233 -3.291,11.242 -7.052,18.028c-3.761,6.786 -9.77,12.591 -18.028,17.415c-8.258,4.824 -19.786,6.827 -34.584,6.009Z" style="fill:#fff;fill-rule:nonzero;"/><path d="M6767.551,1015.073c-43.169,-8.012 -78.142,-20.624 -104.919,-37.834c-26.776,-17.21 -47.339,-37.487 -61.688,-60.829c-14.349,-23.342 -24.119,-48.279 -29.311,-74.81c-5.192,-26.531 -7.992,-52.878 -8.401,-79.041c-0.409,-31.478 5.253,-62.383 16.986,-92.716c11.733,-30.333 28.739,-57.579 51.018,-81.74c22.28,-24.16 49.036,-42.985 80.268,-56.476c31.232,-13.49 65.817,-18.927 103.753,-16.311c38.591,2.616 70.416,10.077 95.475,22.382c25.059,12.305 44.702,27.43 58.929,45.377c14.226,17.946 24.324,37.017 30.292,57.212c5.968,20.195 9.157,39.49 9.566,57.886c0.164,31.723 -8.156,59.521 -24.957,83.395c-16.802,23.874 -44.089,40.308 -81.862,49.301c-10.465,2.371 -23.036,3.945 -37.712,4.722c-14.676,0.777 -30.169,1.165 -46.481,1.165c-16.311,0 -32.357,-0.368 -48.136,-1.104c-15.78,-0.736 -30.026,-1.533 -42.74,-2.391c-12.714,-0.858 -22.975,-1.553 -30.783,-2.085c-7.808,-0.531 -11.712,-0.797 -11.712,-0.797c2.126,12.346 7.154,25.08 15.085,38.202c7.931,13.122 19.725,24.14 35.382,33.051c15.657,8.912 35.872,13.777 60.645,14.594c24.773,-0.082 46.603,-0.838 65.49,-2.269c18.887,-1.431 34.789,-3.066 47.707,-4.906c12.918,-1.84 22.566,-3.516 28.943,-5.028c6.377,-1.513 9.566,-2.269 9.566,-2.269c0,0 2.105,-0.061 6.316,-0.184c4.211,-0.123 9.627,0.225 16.25,1.042c6.623,0.818 13.286,3.127 19.99,6.929c6.704,3.802 12.346,9.75 16.924,17.844c5.396,8.421 7.706,15.882 6.929,22.382c-0.777,6.5 -2.698,12.1 -5.764,16.802c-3.066,4.701 -6.173,8.196 -9.321,10.486c-3.148,2.289 -4.722,3.434 -4.722,3.434c0,0 -6.827,2.637 -20.481,7.91c-13.654,5.274 -31.621,10.874 -53.9,16.802c-22.28,5.928 -46.767,10.24 -73.461,12.939c-26.695,2.698 -53.083,1.676 -79.164,-3.066Zm-80.207,-266.497l155.508,-1.717c0,0 1.88,-0.286 5.641,-0.858c3.761,-0.572 8.523,-1.717 14.288,-3.434c5.764,-1.717 11.426,-4.579 16.986,-8.585c5.56,-4.006 10.159,-9.484 13.797,-16.434c3.638,-6.95 5.457,-15.902 5.457,-26.858c0,-17.824 -3.23,-32.724 -9.689,-44.702c-6.459,-11.978 -17.067,-20.706 -31.825,-26.184c-14.758,-5.478 -35.3,-7.318 -61.627,-5.519c-17.66,1.145 -33.481,6.684 -47.462,16.618c-13.981,9.934 -25.816,22.096 -35.504,36.485c-9.689,14.39 -16.761,28.943 -21.217,43.66c-4.456,14.717 -5.907,27.226 -4.354,37.528Z" style="fill:#fff;fill-rule:nonzero;"/><path d="M7134.965,1004.894c-14.911,0 -27.139,-2.867 -36.685,-8.6c-9.545,-5.733 -16.996,-12.499 -22.351,-20.297c-5.355,-7.798 -9.137,-14.558 -11.344,-20.282c-2.208,-5.723 -3.311,-8.585 -3.311,-8.585c-2.616,-28.125 -4.742,-59.664 -6.377,-94.617c-1.635,-34.952 -2.719,-71.56 -3.25,-109.824c-0.531,-38.264 -0.368,-76.793 0.491,-115.588c0.858,-38.795 2.269,-76.65 4.231,-113.565c1.962,-36.915 4.252,-71.397 6.868,-103.447c0,0 0.675,-2.351 2.024,-7.052c1.349,-4.701 4.211,-10.097 8.585,-16.188c4.374,-6.091 10.751,-11.181 19.132,-15.269c8.38,-4.088 19.653,-5.519 33.818,-4.292c15.105,1.226 26.991,5.028 35.658,11.406c8.667,6.377 15.069,13.434 19.208,21.171c4.139,7.726 6.898,14.492 8.278,20.297c1.38,5.795 2.07,8.692 2.07,8.692c-1.39,25.346 -2.637,54.697 -3.741,88.056c-1.104,33.358 -1.921,68.74 -2.453,106.145c-0.531,37.405 -0.736,75.505 -0.613,114.3c0.123,38.795 0.572,76.752 1.349,113.871c0.777,37.119 2.146,71.704 4.108,103.753c0,0 -0.475,2.499 -1.426,7.496c-0.94,4.987 -3.066,10.808 -6.377,17.461c-3.301,6.653 -8.733,12.479 -16.296,17.476c-7.563,4.987 -18.095,7.481 -31.595,7.481Z" style="fill:#fff;fill-rule:nonzero;"/><path d="M7473.958,1003.79c-34.503,0.409 -66.307,-5.437 -95.414,-17.538c-29.107,-12.1 -54.554,-29.086 -76.343,-50.957c-21.789,-21.871 -38.611,-47.237 -50.466,-76.098c-11.855,-28.861 -17.783,-59.644 -17.783,-92.348c0.409,-36.383 7.072,-69.884 19.99,-100.503c12.918,-30.619 30.619,-57.191 53.103,-79.716c22.484,-22.525 48.709,-40.042 78.674,-52.551c29.965,-12.509 62.199,-18.968 96.702,-19.377c51.1,-0.409 94.453,8.053 130.06,25.386c35.606,17.333 62.689,44.15 81.249,80.452c18.56,36.301 27.839,82.578 27.839,138.828c0,32.704 -5.212,63.609 -15.637,92.716c-10.424,29.107 -25.959,54.881 -46.603,77.325c-20.644,22.443 -46.44,40.246 -77.386,53.41c-30.946,13.163 -66.941,20.154 -107.985,20.971Zm5.028,-118.838c16.516,0 32.316,-3.618 47.4,-10.854c15.085,-7.236 28.412,-17.17 39.981,-29.802c11.569,-12.632 20.808,-27.083 27.717,-43.353c6.909,-16.27 10.363,-33.44 10.363,-51.509c0,-30.496 -4.926,-55.474 -14.778,-74.933c-9.852,-19.459 -23.118,-33.93 -39.797,-43.415c-16.679,-9.484 -36.015,-14.226 -58.009,-14.226c-16.107,0 -31.416,4.231 -45.929,12.693c-14.512,8.462 -27.206,19.704 -38.08,33.726c-10.874,14.022 -19.377,29.679 -25.509,46.971c-6.132,17.292 -9.198,34.973 -9.198,53.042c0,23.302 4.313,44.212 12.939,62.73c8.626,18.519 20.931,32.97 36.915,43.353c15.984,10.384 34.646,15.575 55.985,15.575Zm237.063,119.329c-14.063,0 -25.652,-2.391 -34.768,-7.174c-9.116,-4.783 -15.821,-9.505 -20.113,-14.165c-4.292,-4.66 -6.439,-6.99 -6.439,-6.99c-4.579,-47.748 -8.401,-94.821 -11.467,-141.22c-3.066,-46.399 -4.231,-93.942 -3.495,-142.63c0.736,-48.688 3.393,-99.318 7.972,-151.89c0,0 1.962,-2.289 5.887,-6.868c3.924,-4.579 10.486,-9.055 19.684,-13.429c9.198,-4.374 21.482,-5.948 36.853,-4.722c15.861,1.226 28.023,5.539 36.485,12.939c8.462,7.399 14.267,15.698 17.415,24.896c3.148,9.198 4.987,17.19 5.519,23.976c0.531,6.786 0.797,10.179 0.797,10.179c-2.616,33.358 -4.742,63.711 -6.377,91.06c-1.635,27.349 -2.289,54.554 -1.962,81.617c0.327,27.063 1.145,56.067 2.453,87.013c1.308,30.946 2.943,66.573 4.906,106.881c0,0 -0.368,2.514 -1.104,7.542c-0.736,5.028 -2.678,10.833 -5.825,17.415c-3.148,6.582 -8.38,12.489 -15.698,17.721c-7.318,5.233 -17.558,7.849 -30.721,7.849Z" style="fill:#fff;fill-rule:nonzero;"/><path d="M8070.846,1245.023c-22.239,-1.308 -41.636,-6.541 -58.193,-15.698c-16.556,-9.157 -31.702,-19.949 -45.438,-32.377c0,0 -1.145,-1.349 -3.434,-4.047c-2.289,-2.698 -4.354,-6.234 -6.193,-10.608c-1.84,-4.374 -2.494,-9.157 -1.962,-14.349c0.531,-5.192 3.618,-10.404 9.259,-15.637c5.887,-5.233 11.978,-8.094 18.273,-8.585c6.296,-0.491 11.753,-0.041 16.372,1.349c4.619,1.39 6.929,2.085 6.929,2.085c11.446,7.113 21.666,13.388 30.66,18.825c8.994,5.437 18.723,9.055 29.188,10.854c10.874,0.082 19.111,-1.492 24.712,-4.722c5.601,-3.23 9.402,-7.563 11.406,-13c2.003,-5.437 2.637,-11.058 1.901,-16.863c-2.616,-8.748 -7.154,-16.005 -13.613,-21.769c-6.459,-5.764 -14.39,-10.608 -23.792,-14.533c-3.434,-0.818 -7.788,-2.494 -13.061,-5.028c-5.274,-2.535 -10.118,-5.519 -14.533,-8.953c-4.415,-3.434 -7.318,-6.377 -8.707,-8.83c-3.761,-13.082 -5.56,-27.063 -5.396,-41.943c0.164,-14.88 1.063,-27.185 2.698,-36.915c0,0 0.675,-2.289 2.024,-6.868c1.349,-4.579 4.313,-9.198 8.891,-13.858c4.579,-4.66 11.773,-6.786 21.585,-6.377c10.138,0.409 17.599,4.415 22.382,12.019c4.783,7.604 7.174,11.406 7.174,11.406c1.553,5.723 3.597,13.286 6.132,22.688c2.535,9.402 4.129,19.622 4.783,30.66c7.931,2.208 16.25,5.968 24.957,11.283c8.707,5.314 17.088,12.08 25.141,20.297c8.053,8.217 14.717,17.21 19.99,26.981c5.274,9.77 8.564,20.215 9.873,31.335c3.025,25.509 -0.02,45.867 -9.137,61.075c-9.116,15.207 -22.484,25.897 -40.103,32.07c-17.619,6.173 -37.875,8.851 -60.768,8.033Zm-27.103,-231.544c-53.635,-2.862 -96.804,-14.267 -129.508,-34.217c-32.704,-19.949 -56.905,-46.767 -72.603,-80.452c-15.698,-33.685 -25.182,-71.785 -28.452,-114.3c-2.616,-34.012 1.145,-66.982 11.283,-98.909c10.138,-31.927 25.836,-60.482 47.094,-85.664c21.258,-25.182 47.257,-45.132 77.999,-59.848c30.742,-14.717 65.735,-21.748 104.98,-21.094c33.849,0.409 62.444,4.844 85.787,13.306c23.342,8.462 42.617,18.825 57.825,31.089c15.207,12.264 26.899,24.528 35.075,36.792c8.176,12.264 13.899,22.464 17.17,30.599c3.27,8.135 4.906,12.203 4.906,12.203c0,0 -0.143,2.616 -0.429,7.849c-0.286,5.233 -2.044,11.671 -5.274,19.316c-3.23,7.645 -9.586,14.696 -19.071,21.155c-7.931,5.069 -17.333,8.544 -28.207,10.424c-10.874,1.88 -21.217,1.84 -31.028,-0.123c-9.811,-1.962 -16.965,-5.601 -21.462,-10.915c-0.818,0 -2.882,-2.33 -6.193,-6.99c-3.311,-4.66 -8.074,-9.852 -14.288,-15.575c-6.214,-5.723 -14.39,-10.772 -24.528,-15.146c-10.138,-4.374 -22.32,-6.275 -36.547,-5.703c-17.742,0.981 -33.746,4.333 -48.014,10.056c-14.267,5.723 -26.49,13.879 -36.669,24.467c-10.179,10.588 -17.885,23.322 -23.118,38.202c-5.233,14.88 -7.563,31.764 -6.99,50.65c0.164,25.509 4.497,46.317 13,62.424c8.503,16.107 20.113,28.146 34.83,36.117c14.717,7.972 31.273,12.898 49.669,14.778c14.553,0.981 28.412,-0.082 41.575,-3.189c13.163,-3.107 25.162,-7.174 35.995,-12.203c10.833,-5.028 19.745,-9.545 26.736,-13.552c6.99,-4.006 11.508,-6.214 13.552,-6.623c13.899,-4.497 26.449,-5.805 37.65,-3.924c11.201,1.88 21.237,5.539 30.108,10.976c8.871,5.437 16.005,11.998 21.401,19.684c7.931,10.384 12.06,19.97 12.387,28.759c0.327,8.789 -0.491,15.861 -2.453,21.217c-1.962,5.355 -2.943,8.033 -2.943,8.033c0,0 -4.027,4.374 -12.08,13.122c-8.053,8.748 -20.787,18.743 -38.202,29.985c-17.415,11.242 -40.124,20.747 -68.127,28.514c-28.003,7.767 -62.281,10.67 -102.834,8.707Z" style="fill:#fff;fill-rule:nonzero;"/><path d="M8542.765,1003.79c-35.729,0 -68.556,-6.152 -98.48,-18.457c-29.924,-12.305 -55.781,-29.291 -77.57,-50.957c-21.789,-21.666 -38.713,-46.848 -50.773,-75.546c-12.06,-28.708 -18.089,-59.368 -18.089,-91.98c0,-32.704 6.255,-64.263 18.764,-94.678c12.509,-30.415 30.006,-57.498 52.49,-81.249c22.484,-23.751 48.913,-42.495 79.287,-56.23c30.374,-13.736 63.425,-20.604 99.154,-20.604c35.729,0 69.046,4.906 99.952,14.717c30.905,9.811 58.07,24.794 81.494,44.948c23.424,20.154 41.657,45.632 54.697,76.435c13.041,30.793 19.561,67.156 19.561,109.088c0,32.765 -6.745,63.906 -20.236,93.421c-13.49,29.515 -32.295,55.597 -56.414,78.244c-24.119,22.648 -51.856,40.451 -83.211,53.41c-31.355,12.959 -64.897,19.438 -100.626,19.438Zm-1.886,-117.612c16.72,0 32.699,-3.516 47.937,-10.547c15.248,-7.031 28.759,-16.761 40.533,-29.188c11.773,-12.428 21.115,-26.541 28.023,-42.341c6.909,-15.8 10.363,-32.592 10.363,-50.374c0,-30.088 -4.926,-54.759 -14.778,-74.013c-9.852,-19.254 -23.307,-33.522 -40.364,-42.801c-17.057,-9.28 -36.792,-13.92 -59.204,-13.92c-16.567,0 -32.106,4.129 -46.619,12.387c-14.512,8.258 -27.206,19.295 -38.08,33.113c-10.874,13.817 -19.479,29.168 -25.816,46.051c-6.336,16.883 -9.505,34.119 -9.505,51.708c0,23.445 4.415,44.207 13.245,62.286c8.83,18.069 21.339,32.193 37.528,42.372c16.188,10.179 35.101,15.269 56.736,15.269Z" style="fill:#fff;fill-rule:nonzero;"/><path d="M9030.014,909.602c34.584,0.981 54.697,-3.127 60.339,-12.325c5.641,-9.198 -1.267,-22.709 -20.726,-40.533c-8.503,-7.849 -19.377,-16.25 -32.622,-25.203c-13.245,-8.953 -27.247,-18.825 -42.004,-29.618c-14.758,-10.792 -28.882,-22.811 -42.372,-36.056c-13.49,-13.245 -25.223,-27.982 -35.198,-44.212c-9.975,-16.229 -16.597,-34.482 -19.868,-54.759c-4.742,-28.534 -0.204,-54.309 13.613,-77.325c13.817,-23.015 35.668,-41.227 65.551,-54.636c29.883,-13.409 66.777,-19.622 110.683,-18.641c43.905,0.981 93.697,11.528 149.376,31.641c0,0 1.574,1.042 4.722,3.127c3.148,2.085 6.5,5.376 10.056,9.873c3.557,4.497 6.541,9.873 8.953,16.127c2.412,6.255 2.882,13.552 1.41,21.891c-1.472,6.704 -4.19,11.998 -8.156,15.882c-3.965,3.884 -8.36,6.766 -13.184,8.646c-4.824,1.88 -9.014,3.025 -12.571,3.434c-3.557,0.409 -5.335,0.613 -5.335,0.613c0,0 -2.657,-0.245 -7.972,-0.736c-5.314,-0.491 -12.468,-0.879 -21.462,-1.165c-8.994,-0.286 -19.193,-0.45 -30.599,-0.491c-11.406,-0.041 -23.159,0.286 -35.259,0.981c-12.1,0.695 -23.976,1.88 -35.627,3.557c-11.651,1.676 -22.3,4.313 -31.948,7.91c-11.937,5.069 -20.685,10.588 -26.245,16.556c-5.56,5.968 -7.236,13.041 -5.028,21.217c2.208,8.176 9.075,17.578 20.604,28.207c11.528,10.629 28.739,22.811 51.631,36.547c32.704,19.622 59.603,40.941 80.697,63.957c21.094,23.015 35.198,46.358 42.311,70.027c7.113,23.67 5.764,46.951 -4.047,69.843c-7.113,16.597 -20.706,30.067 -40.778,40.41c-20.072,10.343 -43.844,17.129 -71.315,20.358c-27.471,3.23 -56.312,2.719 -86.523,-1.533c-30.21,-4.252 -59.623,-12.632 -88.239,-25.141c-28.616,-12.509 -53.389,-29.556 -74.32,-51.141c0,0 -1.186,-1.553 -3.557,-4.66c-2.371,-3.107 -4.742,-7.154 -7.113,-12.141c-2.371,-4.987 -3.393,-10.486 -3.066,-16.495c0.327,-6.009 3.189,-12.039 8.585,-18.089c5.233,-5.641 11.181,-9.198 17.844,-10.67c6.663,-1.472 13.163,-1.635 19.5,-0.491c6.336,1.145 11.589,2.494 15.759,4.047c4.17,1.553 6.255,2.33 6.255,2.33c0,0 3.127,1.901 9.382,5.703c6.255,3.802 14.88,8.34 25.877,13.613c10.997,5.274 23.567,9.832 37.712,13.674c14.144,3.843 28.902,5.805 44.273,5.887Z" style="fill:#fff;fill-rule:nonzero;"/></g></g></svg>